<?xml version="1.0" encoding="iso-8859-1"?>
<!-- Generator: Adobe Illustrator 16.0.0, SVG Export Plug-In . SVG Version: 6.00 Build 0)  -->
<!DOCTYPE svg PUBLIC "-//W3C//DTD SVG 1.1//EN" "http://www.w3.org/Graphics/SVG/1.1/DTD/svg11.dtd">
<svg version="1.1" id="Capa_1" xmlns="http://www.w3.org/2000/svg" xmlns:xlink="http://www.w3.org/1999/xlink" x="0px" y="0px"
	 width="35.33px" height="35.33px" viewBox="0 0 35.33 35.33" style="enable-background:new 0 0 35.33 35.33;" xml:space="preserve"
	>
<g>
	<path d="M17.667,0.001v4c7.534,0,13.664,6.131,13.664,13.666s-6.13,13.666-13.664,13.666c-6.856,0-12.549-5.075-13.521-11.666h5.24
		c0.902,3.738,4.268,6.525,8.279,6.525h2v-3.101h5.67v-4h-5.67v-2.854h5.67v-4h-5.67v-3.1h-2c-4.012,0-7.377,2.787-8.279,6.525H0v2
		c0,9.74,7.925,17.666,17.666,17.666c9.74,0,17.664-7.926,17.664-17.666C35.33,7.924,27.407,0.001,17.667,0.001z"/>
</g>
<g>
</g>
<g>
</g>
<g>
</g>
<g>
</g>
<g>
</g>
<g>
</g>
<g>
</g>
<g>
</g>
<g>
</g>
<g>
</g>
<g>
</g>
<g>
</g>
<g>
</g>
<g>
</g>
<g>
</g>
</svg>
