<?xml version="1.0" encoding="UTF-8" standalone="no"?>
<svg
   xmlns:dc="http://purl.org/dc/elements/1.1/"
   xmlns:cc="http://creativecommons.org/ns#"
   xmlns:rdf="http://www.w3.org/1999/02/22-rdf-syntax-ns#"
   xmlns:svg="http://www.w3.org/2000/svg"
   xmlns="http://www.w3.org/2000/svg"
   xmlns:sodipodi="http://sodipodi.sourceforge.net/DTD/sodipodi-0.dtd"
   xmlns:inkscape="http://www.inkscape.org/namespaces/inkscape"
   width="48"
   height="48"
   viewBox="0 0 48 48"
   enable-background="new 0 0 48 48"
   id="svg2"
   version="1.1"
   inkscape:version="0.48.5 r10040"
   sodipodi:docname="connections.svg">
  <metadata
     id="metadata56">
    <rdf:RDF>
      <cc:Work
         rdf:about="">
        <dc:format>image/svg+xml</dc:format>
        <dc:type
           rdf:resource="http://purl.org/dc/dcmitype/StillImage" />
      </cc:Work>
    </rdf:RDF>
  </metadata>
  <defs
     id="defs54" />
  <sodipodi:namedview
     pagecolor="#ffffff"
     bordercolor="#666666"
     borderopacity="1"
     objecttolerance="10"
     gridtolerance="10"
     guidetolerance="10"
     inkscape:pageopacity="0"
     inkscape:pageshadow="2"
     inkscape:window-width="1440"
     inkscape:window-height="900"
     id="namedview52"
     showgrid="false"
     inkscape:zoom="9.8333333"
     inkscape:cx="-5.1981521"
     inkscape:cy="21.232584"
     inkscape:window-x="0"
     inkscape:window-y="0"
     inkscape:window-maximized="1"
     inkscape:current-layer="svg2" />
  <path
     style="opacity:0.99134197999999996;fill:#3bad41;fill-opacity:1;stroke:none"
     d="M 11.281844,46.721666 C 6.66323,45.718157 3,41.051093 3,36.170355 l 0,-0.890319 2.865174,0 2.8651733,0 0.2207222,-0.633693 c 0.6157519,-1.76782 2.3407105,-2.982665 4.5655505,-3.2154 l 1.230815,-0.128753 0,0.957587 0,0.957586 1.648763,0 1.648762,0 0,1.13447 0,1.13447 -1.648762,0 -1.648763,0 0,0.928203 0,0.928202 1.648763,0 1.648762,0 0,1.134469 0,1.134476 -1.648762,0 -1.648763,0 0,0.928198 0,0.928198 -1.082001,-0.002 c -2.007891,-0.0041 -4.0656856,-1.393185 -4.7117986,-3.181471 l -0.2657699,-0.735585 -1.6917545,0 -1.691754,0 0.266388,1.010672 c 1.627931,6.176339 9.357593,8.283554 13.852502,3.77639 3.185534,-3.194257 3.252116,-8.272039 0.15196,-11.58912 -1.153855,-1.234593 -3.102182,-2.259063 -4.657598,-2.449056 l -1.097603,-0.134073 -0.0623,-1.082903 -0.0623,-1.082903 0.813443,0 c 2.052805,0 5.190523,1.584146 6.83005,3.448299 2.015791,2.291971 2.765869,4.439634 2.649491,7.586163 -0.07377,1.994362 -0.126534,2.209351 -0.951038,3.874662 -1.111792,2.245555 -2.718059,3.889234 -4.825148,4.937508 -2.345691,1.166979 -4.399598,1.426905 -6.930372,0.877024 l 0,0 z"
     id="path3153"
     inkscape:connector-curvature="0" />
  <path
     style="opacity:0.99134198;fill:#f74687;fill-opacity:1;stroke:none"
     d="M 36.27891,46.354684 C 32.784262,45.865689 29.837497,43.662623 28.189548,40.3069 27.494853,38.892292 27.137818,37.536005 27.05849,36.01029 l -0.05949,-1.144068 2.865762,0 c 2.639785,0 2.870256,-0.01403 2.922763,-0.177966 0.03135,-0.09788 0.210221,-0.498305 0.397489,-0.889831 0.688605,-1.439677 2.119407,-2.433759 3.950752,-2.744874 0.496733,-0.08439 1.057326,-0.153431 1.245763,-0.153431 l 0.342611,0 0,0.915254 0,0.915255 1.627119,0 1.627119,0 0,1.118644 0,1.118644 -1.627119,0 -1.627119,0 0,0.966102 0,0.966101 1.627119,0 1.627119,0 0,1.067797 0,1.067796 -1.627119,0 -1.627119,0 0,0.980693 0,0.980693 -0.907003,-0.06847 C 35.423896,40.747963 33.817594,39.671321 32.98265,37.688256 l -0.289017,-0.686441 -1.713557,0 c -0.942457,0 -1.713558,0.03524 -1.713558,0.07831 0,0.234098 0.463791,1.695645 0.733355,2.311026 0.99949,2.281706 3.008084,3.968237 5.520882,4.635648 1.045149,0.277597 2.92572,0.305454 3.945371,0.05844 2.926303,-0.708898 5.165769,-2.829944 6.087683,-5.765778 0.206856,-0.658728 0.238133,-0.965369 0.238133,-2.334603 0,-1.770535 -0.146613,-2.437963 -0.836756,-3.809179 -1.208489,-2.401093 -3.591836,-4.091244 -6.275576,-4.450325 l -0.84843,-0.113519 -0.0453,-1.025353 c -0.02492,-0.563944 -0.02923,-1.045122 -0.0096,-1.069284 0.08843,-0.108779 2.090948,0.215437 2.778359,0.449827 3.677766,1.254025 6.419983,4.209059 7.173017,7.729697 0.19835,0.927342 0.22839,3.674909 0.05059,4.627119 -0.130667,0.699786 -1.060438,2.629035 -1.742551,3.615749 -1.377507,1.992633 -3.716879,3.592846 -6.175078,4.223971 -0.908136,0.233157 -2.626138,0.324827 -3.58172,0.191115 z"
     id="path3941"
     inkscape:connector-curvature="0" />
  <path
     style="opacity:0.99134198;fill:#e3b551;fill-opacity:1;stroke:none"
     d="m 36.27891,22.938119 c -3.494648,-0.488995 -6.441413,-2.692061 -8.089362,-6.047784 -0.694695,-1.414608 -1.05173,-2.770895 -1.131058,-4.29661 l -0.05949,-1.144068 2.865762,0 c 2.639785,0 2.870256,-0.01403 2.922763,-0.177966 0.03135,-0.09788 0.210221,-0.498305 0.397489,-0.889831 0.688605,-1.4396775 2.119407,-2.4337595 3.950752,-2.7448745 0.496733,-0.08439 1.057326,-0.153431 1.245763,-0.153431 l 0.342611,0 0,0.915254 0,0.915255 1.627119,0 1.627119,0 0,1.1186445 0,1.118644 -1.627119,0 -1.627119,0 0,0.966102 0,0.966101 1.627119,0 1.627119,0 0,1.067797 0,1.067796 -1.627119,0 -1.627119,0 0,0.980693 0,0.980693 -0.907003,-0.06847 C 35.423896,17.331398 33.817594,16.254756 32.98265,14.271691 l -0.289017,-0.686441 -1.713557,0 c -0.942457,0 -1.713558,0.03524 -1.713558,0.07831 0,0.234098 0.463791,1.695645 0.733355,2.311026 0.99949,2.281706 3.008084,3.968237 5.520882,4.635648 1.045149,0.277597 2.92572,0.305454 3.945371,0.05844 2.926303,-0.708898 5.165769,-2.829944 6.087683,-5.765778 0.206856,-0.658728 0.238133,-0.965369 0.238133,-2.334603 0,-1.770535 -0.146613,-2.437963 -0.836756,-3.8091795 -1.208489,-2.401093 -3.591836,-4.091244 -6.275576,-4.450325 l -0.84843,-0.113519 -0.0453,-1.025353 c -0.02492,-0.563944 -0.02923,-1.045122 -0.0096,-1.069284 0.08843,-0.108779 2.090948,0.215437 2.778359,0.449827 3.677766,1.254025 6.419983,4.209059 7.173017,7.7296975 0.19835,0.927342 0.22839,3.674909 0.05059,4.627119 -0.130667,0.699786 -1.060438,2.629035 -1.742551,3.615749 -1.377507,1.992633 -3.716879,3.592846 -6.175078,4.223971 -0.908136,0.233157 -2.626138,0.324827 -3.58172,0.191115 z"
     id="path3941-8"
     inkscape:connector-curvature="0" />
  <path
     style="opacity:0.99134198;fill:#bbbbbb;fill-opacity:1;stroke:none"
     d="M 12.27991,22.939119 C 8.785262,22.450124 5.838497,20.247058 4.190548,16.891335 3.495853,15.476727 3.138818,14.12044 3.05949,12.594725 L 3,11.450658 l 2.865762,0 c 2.639785,0 2.870256,-0.01403 2.922763,-0.177966 0.03135,-0.09788 0.210221,-0.498305 0.397489,-0.889831 0.688605,-1.4396782 2.119407,-2.4337602 3.950752,-2.7448752 0.496733,-0.08439 1.057326,-0.153431 1.245763,-0.153431 l 0.342611,0 0,0.915254 0,0.915255 1.627119,0 1.627119,0 0,1.1186452 0,1.118644 -1.627119,0 -1.627119,0 0,0.966101 0,0.966101 1.627119,0 1.627119,0 0,1.067797 0,1.067796 -1.627119,0 -1.627119,0 0,0.980693 0,0.980693 -0.907003,-0.06847 C 11.424896,17.332398 9.818594,16.255756 8.98365,14.272691 l -0.289017,-0.686441 -1.713557,0 c -0.942457,0 -1.713558,0.03524 -1.713558,0.07831 0,0.234098 0.463791,1.695645 0.733355,2.311026 0.99949,2.281706 3.008084,3.968237 5.520882,4.635648 1.045149,0.277597 2.92572,0.305454 3.945371,0.05844 2.926303,-0.708898 5.165769,-2.829944 6.087683,-5.765778 0.206856,-0.658728 0.238133,-0.965369 0.238133,-2.334603 0,-1.770534 -0.146613,-2.437962 -0.836756,-3.8091792 -1.208489,-2.401093 -3.591836,-4.091244 -6.275576,-4.450325 l -0.84843,-0.113519 -0.0453,-1.025353 c -0.02492,-0.563944 -0.02923,-1.045122 -0.0096,-1.069284 0.08843,-0.108779 2.090948,0.215437 2.778359,0.449827 3.677766,1.254025 6.419983,4.209059 7.173017,7.7296982 0.19835,0.927342 0.22839,3.674908 0.05059,4.627118 -0.130667,0.699786 -1.060438,2.629035 -1.742551,3.615749 -1.377507,1.992633 -3.716879,3.592846 -6.175078,4.223971 -0.908136,0.233157 -2.626138,0.324827 -3.58172,0.191115 z"
     id="path3941-8-4"
     inkscape:connector-curvature="0" />
</svg>
