<?xml version="1.0" encoding="utf-8"?>
<!-- Generator: Adobe Illustrator 16.0.0, SVG Export Plug-In . SVG Version: 6.00 Build 0)  -->
<!DOCTYPE svg PUBLIC "-//W3C//DTD SVG 1.1//EN" "http://www.w3.org/Graphics/SVG/1.1/DTD/svg11.dtd">
<svg version="1.1" id="Layer_1" xmlns="http://www.w3.org/2000/svg" xmlns:xlink="http://www.w3.org/1999/xlink" x="0px" y="0px"
	 width="48px" height="48px" viewBox="0 0 48 48" enable-background="new 0 0 48 48" xml:space="preserve">
<g>
	<ellipse fill="#E3B551" cx="32.874" cy="5.855" rx="8.787" ry="3.912"/>
	<path fill="#E3B551" d="M34.909,20.221c-0.617-0.158-1.078-0.66-1.193-1.274c-0.279,0.014-0.559,0.02-0.842,0.02
		c-4.855,0-8.789-1.75-8.789-3.912c0,0.902,0,1.505,0,2.991c0,2.162,3.934,3.912,8.789,3.912c0.696,0,1.373-0.041,2.024-0.109
		C34.616,21.347,34.604,20.727,34.909,20.221z"/>
	<path fill="#E3B551" d="M32.874,17.894c0.273,0,0.544-0.008,0.811-0.018v-0.449c0-0.751,0.515-1.397,1.231-1.577
		c-0.188-0.318-0.258-0.683-0.213-1.032c-0.59,0.055-1.202,0.085-1.829,0.085c-4.855,0-8.789-1.75-8.789-3.912
		c0,0.902,0,1.505,0,2.991C24.086,16.144,28.019,17.894,32.874,17.894z"/>
	<path fill="#E3B551" d="M32.874,13.829c0.866,0,1.703-0.057,2.496-0.163l0.656-0.656c0.315-0.315,0.731-0.476,1.15-0.476
		c0.283,0,0.564,0.073,0.82,0.222c0.185-0.708,0.827-1.213,1.57-1.213h1.22c0.022,0,0.043,0.006,0.064,0.006
		c0.516-0.497,0.81-1.048,0.81-1.631c0-0.794,0-1.622,0-2.991c0,2.161-3.935,3.912-8.789,3.912s-8.786-1.751-8.786-3.912
		c0,0.903,0,1.505,0,2.991C24.086,12.079,28.019,13.829,32.874,13.829z"/>
</g>
<g>
	<path fill="#E3B551" d="M45.063,18.645v-1.219l-1.45-0.237c-0.086-0.344-0.221-0.666-0.398-0.963l0.845-1.205l-0.861-0.863
		l-1.189,0.857c-0.298-0.18-0.622-0.317-0.968-0.402l-0.254-1.444h-1.22l-0.233,1.439c-0.348,0.083-0.674,0.219-0.972,0.397
		l-1.187-0.848l-0.861,0.863l0.835,1.193c-0.181,0.299-0.318,0.625-0.405,0.974l-1.433,0.238v1.219l1.432,0.254
		c0.085,0.349,0.224,0.676,0.406,0.975l-0.847,1.183l0.861,0.863l1.194-0.837c0.3,0.181,0.625,0.315,0.972,0.401l0.237,1.439h1.22
		l0.255-1.443c0.346-0.087,0.67-0.224,0.967-0.404l1.203,0.845l0.861-0.863l-0.858-1.193c0.178-0.296,0.313-0.619,0.397-0.964
		L45.063,18.645z M40.188,19.746c-0.938,0-1.701-0.761-1.701-1.7c0-0.937,0.764-1.7,1.701-1.7c0.938,0,1.699,0.763,1.699,1.7
		C41.888,18.984,41.127,19.746,40.188,19.746z"/>
</g>
<g>
	<g>
		<ellipse fill="#BBBBBB" cx="11.777" cy="5.901" rx="8.762" ry="3.901"/>
		<path fill="#BBBBBB" d="M13.807,20.224c-0.615-0.158-1.074-0.659-1.189-1.271c-0.278,0.013-0.557,0.019-0.84,0.019
			c-4.84,0-8.762-1.745-8.762-3.9c0,0.899,0,1.5,0,2.982c0,2.155,3.922,3.9,8.762,3.9c0.695,0,1.37-0.041,2.019-0.108
			C13.515,21.346,13.503,20.728,13.807,20.224z"/>
		<path fill="#BBBBBB" d="M11.777,17.903c0.273,0,0.542-0.007,0.809-0.017v-0.448c0-0.749,0.513-1.393,1.228-1.572
			c-0.188-0.316-0.257-0.681-0.212-1.028c-0.588,0.054-1.199,0.085-1.825,0.085c-4.84,0-8.762-1.746-8.762-3.9
			c0,0.899,0,1.5,0,2.982C3.016,16.158,6.937,17.903,11.777,17.903z"/>
		<path fill="#BBBBBB" d="M11.777,13.851c0.865,0,1.699-0.058,2.49-0.162l0.654-0.654c0.314-0.314,0.729-0.474,1.147-0.474
			c0.282,0,0.563,0.073,0.817,0.22c0.184-0.706,0.825-1.208,1.565-1.208h1.216c0.022,0,0.044,0.005,0.065,0.005
			c0.514-0.496,0.807-1.044,0.807-1.625c0-0.793,0-1.618,0-2.983c0,2.155-3.923,3.9-8.763,3.9c-4.84,0-8.76-1.746-8.76-3.9
			c0,0.9,0,1.501,0,2.983C3.016,12.105,6.937,13.851,11.777,13.851z"/>
	</g>
	<g>
		<path fill="#BBBBBB" d="M23.931,18.653v-1.216l-1.446-0.236c-0.085-0.342-0.219-0.664-0.396-0.96l0.842-1.201l-0.859-0.86
			l-1.186,0.854c-0.296-0.179-0.62-0.317-0.964-0.401l-0.254-1.44h-1.216l-0.232,1.436c-0.346,0.083-0.671,0.218-0.969,0.396
			l-1.183-0.845l-0.859,0.86l0.833,1.19c-0.18,0.298-0.318,0.623-0.404,0.97l-1.428,0.238v1.216l1.427,0.252
			c0.085,0.349,0.223,0.674,0.405,0.971l-0.844,1.18l0.859,0.86l1.19-0.834c0.3,0.18,0.624,0.314,0.969,0.399l0.237,1.435h1.216
			l0.255-1.439c0.344-0.087,0.668-0.224,0.963-0.403l1.2,0.842l0.859-0.86l-0.856-1.19c0.177-0.294,0.312-0.616,0.396-0.96
			L23.931,18.653z M19.07,19.75c-0.935,0-1.695-0.759-1.695-1.695c0-0.934,0.761-1.694,1.695-1.694c0.936,0,1.694,0.761,1.694,1.694
			C20.765,18.991,20.006,19.75,19.07,19.75z"/>
	</g>
</g>
<g>
	<g>
		<ellipse fill="#78B2F2" cx="11.789" cy="29.934" rx="8.788" ry="3.912"/>
		<path fill="#78B2F2" d="M13.824,44.3c-0.617-0.158-1.077-0.66-1.193-1.274c-0.279,0.014-0.559,0.02-0.842,0.02
			C6.934,43.045,3,41.296,3,39.133c0,0.902,0,1.505,0,2.991c0,2.161,3.934,3.912,8.789,3.912c0.697,0,1.374-0.041,2.024-0.109
			C13.531,45.427,13.519,44.807,13.824,44.3z"/>
		<path fill="#78B2F2" d="M11.789,41.972c0.274,0,0.544-0.006,0.812-0.017v-0.449c0-0.751,0.514-1.396,1.231-1.576
			c-0.188-0.318-0.258-0.684-0.213-1.032c-0.59,0.056-1.203,0.086-1.83,0.086C6.934,38.983,3,37.232,3,35.071
			c0,0.901,0,1.505,0,2.99C3.001,40.223,6.934,41.972,11.789,41.972z"/>
		<path fill="#78B2F2" d="M11.789,37.908c0.867,0,1.704-0.059,2.497-0.163l0.656-0.656c0.315-0.314,0.731-0.475,1.15-0.475
			c0.283,0,0.564,0.073,0.82,0.221c0.185-0.708,0.827-1.213,1.57-1.213h1.219c0.022,0,0.044,0.007,0.065,0.007
			c0.515-0.498,0.809-1.048,0.809-1.631c0-0.796,0-1.623,0-2.992c0,2.162-3.935,3.913-8.789,3.913c-4.855,0-8.787-1.751-8.787-3.913
			c0,0.903,0,1.506,0,2.992C3.001,36.157,6.934,37.908,11.789,37.908z"/>
	</g>
	<g>
		<path fill="#78B2F2" d="M23.979,42.725v-1.219l-1.45-0.237c-0.086-0.345-0.22-0.667-0.398-0.964l0.845-1.204l-0.862-0.863
			l-1.189,0.857c-0.297-0.18-0.622-0.319-0.968-0.402l-0.254-1.445h-1.219l-0.233,1.441c-0.347,0.083-0.673,0.218-0.972,0.397
			l-1.187-0.849l-0.861,0.863l0.835,1.193c-0.181,0.299-0.319,0.624-0.405,0.973l-1.432,0.239v1.219l1.431,0.254
			c0.085,0.349,0.223,0.676,0.406,0.973l-0.847,1.185l0.861,0.861l1.194-0.836c0.3,0.18,0.625,0.314,0.972,0.4L18.482,47h1.219
			l0.256-1.443c0.345-0.087,0.67-0.225,0.966-0.403l1.204,0.844l0.861-0.861L22.13,43.94c0.178-0.295,0.312-0.617,0.396-0.962
			L23.979,42.725z M19.103,43.825c-0.937,0-1.7-0.761-1.7-1.701c0-0.937,0.763-1.7,1.7-1.7c0.939,0,1.7,0.764,1.7,1.7
			C20.803,43.064,20.042,43.825,19.103,43.825z"/>
	</g>
</g>
<g>
	<g>
		<ellipse fill="#F74687" cx="32.822" cy="29.911" rx="8.735" ry="3.888"/>
		<path fill="#F74687" d="M34.846,44.191c-0.613-0.157-1.071-0.657-1.187-1.267c-0.277,0.013-0.556,0.019-0.837,0.019
			c-4.826,0-8.736-1.738-8.736-3.889c0,0.896,0,1.496,0,2.973c0,2.148,3.91,3.89,8.736,3.89c0.692,0,1.365-0.041,2.013-0.108
			C34.554,45.311,34.543,44.694,34.846,44.191z"/>
		<path fill="#F74687" d="M32.822,41.877c0.271,0,0.541-0.007,0.807-0.018v-0.446c0-0.745,0.511-1.388,1.224-1.565
			c-0.187-0.317-0.256-0.681-0.211-1.026c-0.587,0.055-1.195,0.085-1.819,0.085c-4.826,0-8.736-1.741-8.736-3.89
			c0,0.897,0,1.496,0,2.974C24.087,40.139,27.996,41.877,32.822,41.877z"/>
		<path fill="#F74687" d="M32.822,37.837c0.861,0,1.693-0.058,2.482-0.161l0.652-0.652c0.313-0.313,0.727-0.473,1.143-0.473
			c0.282,0,0.562,0.072,0.815,0.22c0.184-0.704,0.822-1.205,1.561-1.205h1.213c0.022,0,0.043,0.006,0.064,0.006
			c0.513-0.495,0.805-1.041,0.805-1.621c0-0.791,0-1.613,0-2.975c0,2.15-3.911,3.891-8.736,3.891c-4.826,0-8.734-1.74-8.734-3.891
			c0,0.898,0,1.498,0,2.975C24.087,36.097,27.996,37.837,32.822,37.837z"/>
	</g>
	<g>
		<path fill="#F74687" d="M44.939,42.625v-1.212l-1.441-0.235c-0.085-0.342-0.22-0.663-0.396-0.959l0.839-1.196l-0.856-0.858
			l-1.183,0.853c-0.295-0.179-0.618-0.316-0.961-0.399l-0.253-1.437h-1.213l-0.231,1.432c-0.345,0.083-0.669,0.217-0.966,0.396
			l-1.18-0.844l-0.856,0.858l0.83,1.187c-0.18,0.297-0.316,0.62-0.402,0.967l-1.424,0.237v1.212l1.423,0.253
			c0.085,0.346,0.222,0.671,0.403,0.967l-0.842,1.177l0.856,0.856l1.188-0.83c0.298,0.178,0.621,0.312,0.966,0.396l0.235,1.431
			h1.213l0.254-1.435c0.343-0.087,0.666-0.223,0.96-0.401l1.197,0.839l0.856-0.856l-0.854-1.188
			c0.176-0.293,0.311-0.614,0.395-0.956L44.939,42.625z M40.093,43.719c-0.932,0-1.69-0.756-1.69-1.691
			c0-0.931,0.759-1.689,1.69-1.689c0.934,0,1.689,0.759,1.689,1.689C41.782,42.963,41.026,43.719,40.093,43.719z"/>
	</g>
</g>
</svg>
