<?xml version="1.0" encoding="iso-8859-1"?>
<!-- Generator: Adobe Illustrator 18.1.1, SVG Export Plug-In . SVG Version: 6.00 Build 0)  -->
<svg xmlns="http://www.w3.org/2000/svg" xmlns:xlink="http://www.w3.org/1999/xlink" version="1.1" id="Capa_1" x="0px" y="0px" viewBox="0 0 25.813 25.813" style="enable-background:new 0 0 25.813 25.813;" xml:space="preserve" width="512px" height="512px">
<g>
	<g>
		<ellipse cx="10.813" cy="4.813" rx="10.813" ry="4.813" fill="#CCCCCC"/>
		<path d="M13.317,22.489c-0.758-0.193-1.324-0.811-1.467-1.566c-0.342,0.015-0.688,0.023-1.037,0.023    C4.84,20.946,0,18.793,0,16.133c0,1.11,0,1.852,0,3.68c0,2.659,4.84,4.813,10.813,4.813c0.859,0,1.691-0.049,2.493-0.134    C12.958,23.875,12.942,23.113,13.317,22.489z" fill="#CCCCCC"/>
		<path d="M10.813,19.626c0.338,0,0.67-0.009,1-0.022v-0.552c0-0.924,0.631-1.719,1.514-1.939    c-0.232-0.393-0.317-0.84-0.262-1.271c-0.727,0.068-1.479,0.105-2.252,0.105C4.84,15.947,0,13.794,0,11.134c0,1.11,0,1.852,0,3.68    C0.001,17.472,4.84,19.626,10.813,19.626z" fill="#CCCCCC"/>
		<path d="M10.813,14.626c1.068,0,2.098-0.071,3.073-0.2l0.808-0.808c0.387-0.388,0.899-0.586,1.415-0.586    c0.347,0,0.695,0.09,1.008,0.273c0.228-0.871,1.018-1.492,1.934-1.492h1.5c0.027,0,0.054,0.006,0.08,0.007    c0.633-0.611,0.994-1.29,0.994-2.007c0-0.977,0-1.995,0-3.68c0,2.659-4.84,4.813-10.813,4.813S0.001,8.792,0.001,6.133    c0,1.11,0,1.852,0,3.68C0.001,12.472,4.84,14.626,10.813,14.626z" fill="#CCCCCC"/>
	</g>
	<g>
		<path d="M25.813,20.551v-1.5l-1.785-0.292c-0.105-0.422-0.271-0.819-0.49-1.185l1.04-1.482l-1.061-1.061    l-1.464,1.053c-0.365-0.221-0.765-0.39-1.19-0.495l-0.312-1.776h-1.5l-0.289,1.771c-0.426,0.104-0.828,0.27-1.194,0.489    l-1.46-1.042l-1.061,1.061l1.027,1.468c-0.223,0.368-0.392,0.769-0.498,1.198l-1.763,0.293v1.5l1.762,0.312    c0.105,0.429,0.274,0.831,0.498,1.199l-1.041,1.455l1.061,1.062l1.47-1.029c0.368,0.221,0.769,0.387,1.194,0.492l0.294,1.771h1.5    l0.315-1.776c0.423-0.106,0.823-0.276,1.188-0.497l1.481,1.039l1.06-1.062l-1.057-1.467c0.219-0.365,0.385-0.763,0.489-1.187    L25.813,20.551z M19.813,21.905c-1.154,0-2.092-0.936-2.092-2.092c0-1.154,0.938-2.092,2.092-2.092    c1.156,0,2.092,0.938,2.092,2.092C21.905,20.969,20.969,21.905,19.813,21.905z" fill="#CCCCCC"/>
	</g>
</g>
<g>
</g>
<g>
</g>
<g>
</g>
<g>
</g>
<g>
</g>
<g>
</g>
<g>
</g>
<g>
</g>
<g>
</g>
<g>
</g>
<g>
</g>
<g>
</g>
<g>
</g>
<g>
</g>
<g>
</g>
</svg>
