<?xml version="1.0" encoding="UTF-8" standalone="no"?>
<svg xmlns="http://www.w3.org/2000/svg" xmlns:sodipodi="http://sodipodi.sourceforge.net/DTD/sodipodi-0.dtd" xmlns:inkscape="http://www.inkscape.org/namespaces/inkscape" version="1.1" width="48" height="48" viewBox="0 0 48 48" enable-background="new 0 0 48 48">
 <metadata id="metadata3464"/>
 <g id="g3466" transform="matrix(1.0010487,0,0,1.001001,2.8897416,0.05505508)">
  <g id="g3398">
   <ellipse id="ellipse3400" ry="3.912" rx="8.787" cy="5.855" cx="32.874" fill="#e3b551"/>
   <path id="path3402" d="m 34.909,20.221 c -0.617,-0.158 -1.078,-0.66 -1.193,-1.274 -0.279,0.014 -0.559,0.02 -0.842,0.02 -4.855,0 -8.789,-1.75 -8.789,-3.912 0,0.902 0,1.505 0,2.991 0,2.162 3.934,3.912 8.789,3.912 0.696,0 1.373,-0.041 2.024,-0.109 -0.282,-0.502 -0.294,-1.122 0.011,-1.628 z" inkscape:connector-curvature="0" fill="#e3b551"/>
   <path id="path3404" d="m 32.874,17.894 c 0.273,0 0.544,-0.008 0.811,-0.018 l 0,-0.449 c 0,-0.751 0.515,-1.397 1.231,-1.577 -0.188,-0.318 -0.258,-0.683 -0.213,-1.032 -0.59,0.055 -1.202,0.085 -1.829,0.085 -4.855,0 -8.789,-1.75 -8.789,-3.912 0,0.902 0,1.505 0,2.991 10e-4,2.162 3.934,3.912 8.789,3.912 z" inkscape:connector-curvature="0" fill="#e3b551"/>
   <path id="path3406" d="m 32.874,13.829 c 0.866,0 1.703,-0.057 2.496,-0.163 l 0.656,-0.656 c 0.315,-0.315 0.731,-0.476 1.15,-0.476 0.283,0 0.564,0.073 0.82,0.222 0.185,-0.708 0.827,-1.213 1.57,-1.213 l 1.22,0 c 0.022,0 0.043,0.006 0.064,0.006 0.516,-0.497 0.81,-1.048 0.81,-1.631 0,-0.794 0,-1.622 0,-2.991 0,2.161 -3.935,3.912 -8.789,3.912 -4.854,0 -8.786,-1.751 -8.786,-3.912 0,0.903 0,1.505 0,2.991 10e-4,2.161 3.934,3.911 8.789,3.911 z" inkscape:connector-curvature="0" fill="#e3b551"/>
  </g>
  <g id="g3408">
   <path id="path3410" d="m 45.063,18.645 0,-1.219 -1.45,-0.237 c -0.086,-0.344 -0.221,-0.666 -0.398,-0.963 l 0.845,-1.205 -0.861,-0.863 -1.189,0.857 c -0.298,-0.18 -0.622,-0.317 -0.968,-0.402 l -0.254,-1.444 -1.22,0 -0.233,1.439 c -0.348,0.083 -0.674,0.219 -0.972,0.397 l -1.187,-0.848 -0.861,0.863 0.835,1.193 c -0.181,0.299 -0.318,0.625 -0.405,0.974 l -1.433,0.238 0,1.219 1.432,0.254 c 0.085,0.349 0.224,0.676 0.406,0.975 l -0.847,1.183 0.861,0.863 1.194,-0.837 c 0.3,0.181 0.625,0.315 0.972,0.401 l 0.237,1.439 1.22,0 0.255,-1.443 c 0.346,-0.087 0.67,-0.224 0.967,-0.404 l 1.203,0.845 0.861,-0.863 -0.858,-1.193 c 0.178,-0.296 0.313,-0.619 0.397,-0.964 l 1.451,-0.255 z m -4.875,1.101 c -0.938,0 -1.701,-0.761 -1.701,-1.7 0,-0.937 0.764,-1.7 1.701,-1.7 0.938,0 1.699,0.763 1.699,1.7 10e-4,0.938 -0.76,1.7 -1.699,1.7 z" inkscape:connector-curvature="0" fill="#e3b551"/>
  </g>
 </g>
 <g id="g3412" transform="matrix(1.0040161,0,0,1.0039681,-0.02710843,-0.00793695)">
  <g id="g3414">
   <ellipse cx="11.777" cy="5.901" rx="8.762" ry="3.901" id="ellipse3416" fill="#bbbbbb"/>
   <path d="m 13.807,20.224 c -0.615,-0.158 -1.074,-0.659 -1.189,-1.271 -0.278,0.013 -0.557,0.019 -0.84,0.019 -4.84,0 -8.762,-1.745 -8.762,-3.9 0,0.899 0,1.5 0,2.982 0,2.155 3.922,3.9 8.762,3.9 0.695,0 1.37,-0.041 2.019,-0.108 -0.282,-0.5 -0.294,-1.118 0.01,-1.622 z" id="path3418" inkscape:connector-curvature="0" fill="#bbbbbb"/>
   <path d="m 11.777,17.903 c 0.273,0 0.542,-0.007 0.809,-0.017 l 0,-0.448 c 0,-0.749 0.513,-1.393 1.228,-1.572 -0.188,-0.316 -0.257,-0.681 -0.212,-1.028 -0.588,0.054 -1.199,0.085 -1.825,0.085 -4.84,0 -8.762,-1.746 -8.762,-3.9 0,0.899 0,1.5 0,2.982 10e-4,2.153 3.922,3.898 8.762,3.898 z" id="path3420" inkscape:connector-curvature="0" fill="#bbbbbb"/>
   <path d="m 11.777,13.851 c 0.865,0 1.699,-0.058 2.49,-0.162 l 0.654,-0.654 c 0.314,-0.314 0.729,-0.474 1.147,-0.474 0.282,0 0.563,0.073 0.817,0.22 0.184,-0.706 0.825,-1.208 1.565,-1.208 l 1.216,0 c 0.022,0 0.044,0.005 0.065,0.005 0.514,-0.496 0.807,-1.044 0.807,-1.625 0,-0.793 0,-1.618 0,-2.983 0,2.155 -3.923,3.9 -8.763,3.9 -4.84,0 -8.76,-1.746 -8.76,-3.9 0,0.9 0,1.501 0,2.983 10e-4,2.152 3.922,3.898 8.762,3.898 z" id="path3422" inkscape:connector-curvature="0" fill="#bbbbbb"/>
  </g>
  <g id="g3424">
   <path d="m 23.931,18.653 0,-1.216 -1.446,-0.236 C 22.4,16.859 22.266,16.537 22.089,16.241 l 0.842,-1.201 -0.859,-0.86 -1.186,0.854 c -0.296,-0.179 -0.62,-0.317 -0.964,-0.401 l -0.254,-1.44 -1.216,0 -0.232,1.436 c -0.346,0.083 -0.671,0.218 -0.969,0.396 l -1.183,-0.845 -0.859,0.86 0.833,1.19 c -0.18,0.298 -0.318,0.623 -0.404,0.97 l -1.428,0.238 0,1.216 1.427,0.252 c 0.085,0.349 0.223,0.674 0.405,0.971 l -0.844,1.18 0.859,0.86 1.19,-0.834 c 0.3,0.18 0.624,0.314 0.969,0.399 l 0.237,1.435 1.216,0 0.255,-1.439 c 0.344,-0.087 0.668,-0.224 0.963,-0.403 l 1.2,0.842 0.859,-0.86 -0.856,-1.19 c 0.177,-0.294 0.312,-0.616 0.396,-0.96 l 1.445,-0.254 z M 19.07,19.75 c -0.935,0 -1.695,-0.759 -1.695,-1.695 0,-0.934 0.761,-1.694 1.695,-1.694 0.936,0 1.694,0.761 1.694,1.694 0.001,0.936 -0.758,1.695 -1.694,1.695 z" id="path3426" inkscape:connector-curvature="0" fill="#bbbbbb"/>
  </g>
 </g>
 <g id="g3428" transform="matrix(1.0009533,0,0,1.0010487,-0.00185891,-0.0492899)">
  <g id="g3430">
   <ellipse cx="11.789" cy="29.934" rx="8.788" ry="3.912" id="ellipse3432" fill="#78b2f2"/>
   <path d="m 13.824,44.3 c -0.617,-0.158 -1.077,-0.66 -1.193,-1.274 -0.279,0.014 -0.559,0.02 -0.842,0.02 C 6.934,43.045 3,41.296 3,39.133 c 0,0.902 0,1.505 0,2.991 0,2.161 3.934,3.912 8.789,3.912 0.697,0 1.374,-0.041 2.024,-0.109 -0.282,-0.5 -0.294,-1.12 0.011,-1.627 z" id="path3434" inkscape:connector-curvature="0" fill="#78b2f2"/>
   <path d="m 11.789,41.972 c 0.274,0 0.544,-0.006 0.812,-0.017 l 0,-0.449 c 0,-0.751 0.514,-1.396 1.231,-1.576 -0.188,-0.318 -0.258,-0.684 -0.213,-1.032 -0.59,0.056 -1.203,0.086 -1.83,0.086 C 6.934,38.983 3,37.232 3,35.071 c 0,0.901 0,1.505 0,2.99 10e-4,2.162 3.934,3.911 8.789,3.911 z" id="path3436" inkscape:connector-curvature="0" fill="#78b2f2"/>
   <path d="m 11.789,37.908 c 0.867,0 1.704,-0.059 2.497,-0.163 l 0.656,-0.656 c 0.315,-0.314 0.731,-0.475 1.15,-0.475 0.283,0 0.564,0.073 0.82,0.221 0.185,-0.708 0.827,-1.213 1.57,-1.213 l 1.219,0 c 0.022,0 0.044,0.007 0.065,0.007 0.515,-0.498 0.809,-1.048 0.809,-1.631 0,-0.796 0,-1.623 0,-2.992 0,2.162 -3.935,3.913 -8.789,3.913 -4.855,0 -8.787,-1.751 -8.787,-3.913 0,0.903 0,1.506 0,2.992 0.002,2.159 3.935,3.91 8.79,3.91 z" id="path3438" inkscape:connector-curvature="0" fill="#78b2f2"/>
  </g>
  <g id="g3440">
   <path d="m 23.979,42.725 0,-1.219 -1.45,-0.237 c -0.086,-0.345 -0.22,-0.667 -0.398,-0.964 l 0.845,-1.204 -0.862,-0.863 -1.189,0.857 c -0.297,-0.18 -0.622,-0.319 -0.968,-0.402 l -0.254,-1.445 -1.219,0 -0.233,1.441 c -0.347,0.083 -0.673,0.218 -0.972,0.397 l -1.187,-0.849 -0.861,0.863 0.835,1.193 c -0.181,0.299 -0.319,0.624 -0.405,0.973 l -1.432,0.239 0,1.219 1.431,0.254 c 0.085,0.349 0.223,0.676 0.406,0.973 l -0.847,1.185 0.861,0.861 1.194,-0.836 c 0.3,0.18 0.625,0.314 0.972,0.4 l 0.236,1.439 1.219,0 0.256,-1.443 c 0.345,-0.087 0.67,-0.225 0.966,-0.403 l 1.204,0.844 0.861,-0.861 -0.858,-1.197 c 0.178,-0.295 0.312,-0.617 0.396,-0.962 l 1.453,-0.253 z m -4.876,1.1 c -0.937,0 -1.7,-0.761 -1.7,-1.701 0,-0.937 0.763,-1.7 1.7,-1.7 0.939,0 1.7,0.764 1.7,1.7 0,0.94 -0.761,1.701 -1.7,1.701 z" id="path3442" inkscape:connector-curvature="0" fill="#78b2f2"/>
  </g>
 </g>
 <g id="g3444" transform="matrix(1.0070493,0,0,1.007001,2.7442095,-0.20518684)">
  <g id="g3446">
   <ellipse cx="32.822" cy="29.911" rx="8.735" ry="3.888" id="ellipse3448" fill="#f74687"/>
   <path d="m 34.846,44.191 c -0.613,-0.157 -1.071,-0.657 -1.187,-1.267 -0.277,0.013 -0.556,0.019 -0.837,0.019 -4.826,0 -8.736,-1.738 -8.736,-3.889 0,0.896 0,1.496 0,2.973 0,2.148 3.91,3.89 8.736,3.89 0.692,0 1.365,-0.041 2.013,-0.108 -0.281,-0.498 -0.292,-1.115 0.011,-1.618 z" id="path3450" inkscape:connector-curvature="0" fill="#f74687"/>
   <path d="m 32.822,41.877 c 0.271,0 0.541,-0.007 0.807,-0.018 l 0,-0.446 c 0,-0.745 0.511,-1.388 1.224,-1.565 -0.187,-0.317 -0.256,-0.681 -0.211,-1.026 -0.587,0.055 -1.195,0.085 -1.819,0.085 -4.826,0 -8.736,-1.741 -8.736,-3.89 0,0.897 0,1.496 0,2.974 0,2.148 3.909,3.886 8.735,3.886 z" id="path3452" inkscape:connector-curvature="0" fill="#f74687"/>
   <path d="m 32.822,37.837 c 0.861,0 1.693,-0.058 2.482,-0.161 l 0.652,-0.652 c 0.313,-0.313 0.727,-0.473 1.143,-0.473 0.282,0 0.562,0.072 0.815,0.22 0.184,-0.704 0.822,-1.205 1.561,-1.205 l 1.213,0 c 0.022,0 0.043,0.006 0.064,0.006 0.513,-0.495 0.805,-1.041 0.805,-1.621 0,-0.791 0,-1.613 0,-2.975 0,2.15 -3.911,3.891 -8.736,3.891 -4.826,0 -8.734,-1.74 -8.734,-3.891 0,0.898 0,1.498 0,2.975 0,2.146 3.909,3.886 8.735,3.886 z" id="path3454" inkscape:connector-curvature="0" fill="#f74687"/>
  </g>
  <g id="g3456">
   <path d="m 44.939,42.625 0,-1.212 -1.441,-0.235 c -0.085,-0.342 -0.22,-0.663 -0.396,-0.959 l 0.839,-1.196 -0.856,-0.858 -1.183,0.853 c -0.295,-0.179 -0.618,-0.316 -0.961,-0.399 l -0.253,-1.437 -1.213,0 -0.231,1.432 c -0.345,0.083 -0.669,0.217 -0.966,0.396 l -1.18,-0.844 -0.856,0.858 0.83,1.187 c -0.18,0.297 -0.316,0.62 -0.402,0.967 l -1.424,0.237 0,1.212 1.423,0.253 c 0.085,0.346 0.222,0.671 0.403,0.967 l -0.842,1.177 0.856,0.856 1.188,-0.83 c 0.298,0.178 0.621,0.312 0.966,0.396 l 0.235,1.431 1.213,0 0.254,-1.435 c 0.343,-0.087 0.666,-0.223 0.96,-0.401 l 1.197,0.839 0.856,-0.856 -0.854,-1.188 c 0.176,-0.293 0.311,-0.614 0.395,-0.956 l 1.443,-0.255 z m -4.846,1.094 c -0.932,0 -1.69,-0.756 -1.69,-1.691 0,-0.931 0.759,-1.689 1.69,-1.689 0.934,0 1.689,0.759 1.689,1.689 0,0.935 -0.756,1.691 -1.689,1.691 z" id="path3458" inkscape:connector-curvature="0" fill="#f74687"/>
  </g>
 </g>
</svg>
