<svg xmlns="http://www.w3.org/2000/svg" width="48" height="48" viewBox="0 0 48 48" enable-background="new 0 0 48 48"><g transform="matrix(1.001 0 0 1.001 2.89.055)" fill="#e3b551"><ellipse ry="3.912" rx="8.787" cy="5.855" cx="32.874"/><path d="m34.909 20.221c-.617-.158-1.078-.66-1.193-1.274-.279.014-.559.02-.842.02-4.855 0-8.789-1.75-8.789-3.912 0 .902 0 1.505 0 2.991 0 2.162 3.934 3.912 8.789 3.912.696 0 1.373-.041 2.024-.109-.282-.502-.294-1.122.011-1.628"/><path d="m32.874 17.894c.273 0 .544-.008.811-.018v-.449c0-.751.515-1.397 1.231-1.577-.188-.318-.258-.683-.213-1.032-.59.055-1.202.085-1.829.085-4.855 0-8.789-1.75-8.789-3.912 0 .902 0 1.505 0 2.991.0001 2.162 3.934 3.912 8.789 3.912"/><path d="m32.874 13.829c.866 0 1.703-.057 2.496-.163l.656-.656c.315-.315.731-.476 1.15-.476.283 0 .564.073.82.222.185-.708.827-1.213 1.57-1.213h1.22c.022 0 .043.006.064.006.516-.497.81-1.048.81-1.631 0-.794 0-1.622 0-2.991 0 2.161-3.935 3.912-8.789 3.912-4.854 0-8.786-1.751-8.786-3.912 0 .903 0 1.505 0 2.991.0001 2.161 3.934 3.911 8.789 3.911"/><path d="m45.06 18.645v-1.219l-1.45-.237c-.086-.344-.221-.666-.398-.963l.845-1.205-.861-.863-1.189.857c-.298-.18-.622-.317-.968-.402l-.254-1.444h-1.22l-.233 1.439c-.348.083-.674.219-.972.397l-1.187-.848-.861.863.835 1.193c-.181.299-.318.625-.405.974l-1.433.238v1.219l1.432.254c.085.349.224.676.406.975l-.847 1.183.861.863 1.194-.837c.3.181.625.315.972.401l.237 1.439h1.22l.255-1.443c.346-.087.67-.224.967-.404l1.203.845.861-.863-.858-1.193c.178-.296.313-.619.397-.964l1.451-.255m-4.875 1.101c-.938 0-1.701-.761-1.701-1.7 0-.937.764-1.7 1.701-1.7.938 0 1.699.763 1.699 1.7.0001.938-.76 1.7-1.699 1.7"/></g><g transform="matrix(1.004 0 0 1.004-.027-.008)" fill="#bbb"><ellipse cx="11.777" cy="5.901" rx="8.762" ry="3.901"/><path d="m13.807 20.224c-.615-.158-1.074-.659-1.189-1.271-.278.013-.557.019-.84.019-4.84 0-8.762-1.745-8.762-3.9 0 .899 0 1.5 0 2.982 0 2.155 3.922 3.9 8.762 3.9.695 0 1.37-.041 2.02-.108-.282-.5-.294-1.118.001-1.622"/><path d="m11.777 17.903c.273 0 .542-.007.809-.017v-.448c0-.749.513-1.393 1.228-1.572-.188-.316-.257-.681-.212-1.028-.588.054-1.199.085-1.825.085-4.84 0-8.762-1.746-8.762-3.9 0 .899 0 1.5 0 2.982.0001 2.153 3.922 3.898 8.762 3.898"/><path d="m11.777 13.851c.865 0 1.699-.058 2.49-.162l.654-.654c.314-.314.729-.474 1.147-.474.282 0 .563.073.817.22.184-.706.825-1.208 1.565-1.208h1.216c.022 0 .044.005.065.005.514-.496.807-1.044.807-1.625 0-.793 0-1.618 0-2.983 0 2.155-3.923 3.9-8.763 3.9-4.84 0-8.76-1.746-8.76-3.9 0 .9 0 1.501 0 2.983.0001 2.152 3.922 3.898 8.762 3.898"/><path d="m23.931 18.653v-1.216l-1.446-.236c-.085-.342-.219-.664-.396-.96l.842-1.201-.859-.86-1.186.854c-.296-.179-.62-.317-.964-.401l-.254-1.44h-1.216l-.232 1.436c-.346.083-.671.218-.969.396l-1.183-.845-.859.86.833 1.19c-.18.298-.318.623-.404.97l-1.428.238v1.216l1.427.252c.085.349.223.674.405.971l-.844 1.18.859.86 1.19-.834c.3.18.624.314.969.399l.237 1.435h1.216l.255-1.439c.344-.087.668-.224.963-.403l1.2.842.859-.86-.856-1.19c.177-.294.312-.616.396-.96l1.445-.254m-4.861 1.097c-.935 0-1.695-.759-1.695-1.695 0-.934.761-1.694 1.695-1.694.936 0 1.694.761 1.694 1.694.0001.936-.758 1.695-1.694 1.695"/></g><g transform="matrix(1.001 0 0 1.001-.002-.049)" fill="#78b2f2"><ellipse cx="11.789" cy="29.934" rx="8.788" ry="3.912"/><path d="m13.824 44.3c-.617-.158-1.077-.66-1.193-1.274-.279.014-.559.02-.842.02-4.855-.0001-8.789-1.75-8.789-3.913 0 .902 0 1.505 0 2.991 0 2.161 3.934 3.912 8.789 3.912.697 0 1.374-.041 2.024-.109-.282-.5-.294-1.12.011-1.627"/><path d="m11.789 41.972c.274 0 .544-.006.812-.017v-.449c0-.751.514-1.396 1.231-1.576-.188-.318-.258-.684-.213-1.032-.59.056-1.203.086-1.83.086-4.855-.0001-8.789-1.752-8.789-3.913 0 .901 0 1.505 0 2.99.0001 2.162 3.934 3.911 8.789 3.911"/><path d="m11.789 37.908c.867 0 1.704-.059 2.497-.163l.656-.656c.315-.314.731-.475 1.15-.475.283 0 .564.073.82.221.185-.708.827-1.213 1.57-1.213h1.219c.022 0 .044.007.065.007.515-.498.809-1.048.809-1.631 0-.796 0-1.623 0-2.992 0 2.162-3.935 3.913-8.789 3.913-4.855 0-8.787-1.751-8.787-3.913 0 .903 0 1.506 0 2.992.002 2.159 3.935 3.91 8.79 3.91"/><path d="m23.979 42.725v-1.219l-1.45-.237c-.086-.345-.22-.667-.398-.964l.845-1.204-.862-.863-1.189.857c-.297-.18-.622-.319-.968-.402l-.254-1.445h-1.219l-.233 1.441c-.347.083-.673.218-.972.397l-1.187-.849-.861.863.835 1.193c-.181.299-.319.624-.405.973l-1.432.239v1.219l1.431.254c.085.349.223.676.406.973l-.847 1.185.861.861 1.194-.836c.3.18.625.314.972.4l.236 1.439h1.219l.256-1.443c.345-.087.67-.225.966-.403l1.204.844.861-.861-.858-1.197c.178-.295.312-.617.396-.962l1.453-.253m-4.876 1.1c-.937 0-1.7-.761-1.7-1.701 0-.937.763-1.7 1.7-1.7.939 0 1.7.764 1.7 1.7 0 .94-.761 1.701-1.7 1.701"/></g><g transform="matrix(1.007 0 0 1.007 2.744-.205)" fill="#f74687"><ellipse cx="32.822" cy="29.911" rx="8.735" ry="3.888"/><path d="m34.846 44.19c-.613-.157-1.071-.657-1.187-1.267-.277.013-.556.019-.837.019-4.826 0-8.736-1.738-8.736-3.889 0 .896 0 1.496 0 2.973 0 2.148 3.91 3.89 8.736 3.89.692 0 1.365-.041 2.01-.108-.281-.498-.292-1.115.011-1.618"/><path d="m32.822 41.877c.271 0 .541-.007.807-.018v-.446c0-.745.511-1.388 1.224-1.565-.187-.317-.256-.681-.211-1.026-.587.055-1.195.085-1.819.085-4.826 0-8.736-1.741-8.736-3.89 0 .897 0 1.496 0 2.974 0 2.148 3.909 3.886 8.735 3.886"/><path d="m32.822 37.837c.861 0 1.693-.058 2.482-.161l.652-.652c.313-.313.727-.473 1.143-.473.282 0 .562.072.815.22.184-.704.822-1.205 1.561-1.205h1.213c.022 0 .043.006.064.006.513-.495.805-1.041.805-1.621 0-.791 0-1.613 0-2.975 0 2.15-3.911 3.891-8.736 3.891-4.826 0-8.734-1.74-8.734-3.891 0 .898 0 1.498 0 2.975 0 2.146 3.909 3.886 8.735 3.886"/><path d="m44.939 42.625v-1.212l-1.441-.235c-.085-.342-.22-.663-.396-.959l.839-1.196-.856-.858-1.183.853c-.295-.179-.618-.316-.961-.399l-.253-1.437h-1.213l-.231 1.432c-.345.083-.669.217-.966.396l-1.18-.844-.856.858.83 1.187c-.18.297-.316.62-.402.967l-1.424.237v1.212l1.423.253c.085.346.222.671.403.967l-.842 1.177.856.856 1.188-.83c.298.178.621.312.966.396l.235 1.431h1.213l.254-1.435c.343-.087.666-.223.96-.401l1.197.839.856-.856-.854-1.188c.176-.293.311-.614.395-.956l1.443-.255m-4.846 1.094c-.932 0-1.69-.756-1.69-1.691 0-.931.759-1.689 1.69-1.689.934 0 1.689.759 1.689 1.689 0 .935-.756 1.691-1.689 1.691"/></g></svg>
