<?xml version="1.0" encoding="utf-8"?>
<!-- Generator: Adobe Illustrator 16.0.0, SVG Export Plug-In . SVG Version: 6.00 Build 0)  -->
<!DOCTYPE svg PUBLIC "-//W3C//DTD SVG 1.1//EN" "http://www.w3.org/Graphics/SVG/1.1/DTD/svg11.dtd">
<svg version="1.1" id="Layer_1" xmlns="http://www.w3.org/2000/svg" xmlns:xlink="http://www.w3.org/1999/xlink" x="0px" y="0px"
	 width="48px" height="48px" viewBox="0 0 48 48" enable-background="new 0 0 48 48" xml:space="preserve">
<g>
	<ellipse fill="#31C95B" cx="33.193" cy="7.355" rx="8.028" ry="3.574"/>
	<path fill="#31C95B" d="M35.053,20.48c-0.563-0.144-0.984-0.603-1.09-1.164c-0.255,0.013-0.511,0.018-0.77,0.018
		c-4.436,0-8.029-1.599-8.029-3.574c0,0.824,0,1.375,0,2.732c0,1.975,3.594,3.574,8.029,3.574c0.637,0,1.255-0.037,1.85-0.1
		C34.785,21.509,34.774,20.942,35.053,20.48z"/>
	<path fill="#31C95B" d="M33.193,18.354c0.25,0,0.497-0.007,0.741-0.016v-0.41c0-0.687,0.47-1.276,1.125-1.44
		c-0.172-0.291-0.235-0.624-0.194-0.942c-0.539,0.05-1.099,0.078-1.672,0.078c-4.436,0-8.029-1.6-8.029-3.574
		c0,0.824,0,1.375,0,2.732C25.165,16.755,28.758,18.354,33.193,18.354z"/>
	<path fill="#31C95B" d="M33.193,14.641c0.792,0,1.557-0.052,2.281-0.148l0.6-0.6c0.288-0.288,0.668-0.435,1.051-0.435
		c0.259,0,0.516,0.067,0.749,0.203c0.169-0.646,0.756-1.108,1.435-1.108h1.114c0.021,0,0.04,0.005,0.06,0.005
		c0.471-0.454,0.739-0.957,0.739-1.49c0-0.726,0-1.481,0-2.733c0,1.975-3.595,3.574-8.029,3.574c-4.436,0-8.027-1.6-8.027-3.574
		c0,0.825,0,1.375,0,2.733C25.165,13.042,28.758,14.641,33.193,14.641z"/>
</g>
<g>
	<path fill="#31C95B" d="M44.33,19.041v-1.114l-1.325-0.217c-0.078-0.314-0.201-0.608-0.363-0.879l0.771-1.101l-0.787-0.788
		l-1.087,0.783c-0.271-0.164-0.568-0.29-0.884-0.368l-0.232-1.319h-1.114l-0.213,1.315c-0.317,0.076-0.615,0.2-0.888,0.363
		l-1.084-0.774l-0.787,0.788l0.763,1.09c-0.165,0.273-0.291,0.571-0.37,0.89l-1.309,0.217v1.114l1.308,0.232
		c0.078,0.319,0.204,0.618,0.371,0.89l-0.773,1.081l0.787,0.788l1.091-0.765c0.274,0.165,0.571,0.288,0.888,0.366l0.217,1.315h1.114
		l0.233-1.319c0.315-0.08,0.612-0.205,0.883-0.369l1.1,0.771l0.787-0.788l-0.784-1.09c0.162-0.27,0.285-0.565,0.362-0.88
		L44.33,19.041z M39.876,20.046c-0.856,0-1.554-0.695-1.554-1.553c0-0.856,0.697-1.553,1.554-1.553c0.857,0,1.553,0.697,1.553,1.553
		C41.429,19.351,40.733,20.046,39.876,20.046z"/>
</g>
<g>
	<g>
		<ellipse fill="#CCCCCC" cx="11.037" cy="7.356" rx="8.028" ry="3.574"/>
		<path fill="#CCCCCC" d="M12.896,20.481c-0.563-0.145-0.984-0.604-1.09-1.164c-0.255,0.012-0.511,0.018-0.77,0.018
			c-4.436,0-8.029-1.599-8.029-3.574c0,0.824,0,1.375,0,2.732c0,1.975,3.594,3.574,8.029,3.574c0.637,0,1.255-0.037,1.85-0.1
			C12.629,21.509,12.618,20.943,12.896,20.481z"/>
		<path fill="#CCCCCC" d="M11.037,18.354c0.25,0,0.497-0.007,0.741-0.016v-0.41c0-0.687,0.47-1.276,1.125-1.44
			c-0.172-0.29-0.235-0.624-0.194-0.942c-0.539,0.05-1.099,0.078-1.672,0.078c-4.436,0-8.029-1.6-8.029-3.574
			c0,0.824,0,1.375,0,2.732C3.009,16.755,6.602,18.354,11.037,18.354z"/>
		<path fill="#CCCCCC" d="M11.037,14.641c0.792,0,1.557-0.053,2.281-0.148l0.6-0.6c0.288-0.288,0.668-0.435,1.051-0.435
			c0.259,0,0.516,0.067,0.749,0.202c0.169-0.646,0.756-1.107,1.435-1.107h1.114c0.021,0,0.04,0.005,0.06,0.005
			c0.471-0.454,0.739-0.957,0.739-1.489c0-0.727,0-1.482,0-2.733c0,1.975-3.595,3.574-8.029,3.574c-4.436,0-8.027-1.6-8.027-3.574
			c0,0.825,0,1.376,0,2.733C3.009,13.042,6.602,14.641,11.037,14.641z"/>
	</g>
	<g>
		<path fill="#CCCCCC" d="M22.174,19.042v-1.114l-1.325-0.217c-0.078-0.313-0.201-0.608-0.363-0.88l0.771-1.101l-0.787-0.788
			l-1.087,0.783c-0.271-0.164-0.568-0.291-0.884-0.368l-0.232-1.319h-1.114l-0.213,1.315c-0.317,0.076-0.615,0.2-0.888,0.363
			l-1.084-0.774l-0.787,0.788l0.763,1.091c-0.165,0.273-0.291,0.57-0.37,0.889l-1.309,0.218v1.114l1.308,0.231
			c0.078,0.319,0.204,0.618,0.371,0.89l-0.773,1.081l0.787,0.788l1.091-0.765c0.274,0.165,0.571,0.288,0.888,0.366l0.217,1.314
			h1.114l0.233-1.318c0.315-0.08,0.612-0.205,0.883-0.369l1.1,0.771l0.787-0.788l-0.784-1.091c0.162-0.27,0.285-0.564,0.362-0.88
			L22.174,19.042z M17.72,20.046c-0.856,0-1.554-0.695-1.554-1.554c0-0.855,0.697-1.553,1.554-1.553
			c0.857,0,1.553,0.697,1.553,1.553C19.272,19.351,18.577,20.046,17.72,20.046z"/>
	</g>
</g>
<g>
	<g>
		<ellipse fill="#0773E8" cx="11.343" cy="29.345" rx="8.028" ry="3.574"/>
		<path fill="#0773E8" d="M13.202,42.47c-0.563-0.145-0.984-0.604-1.09-1.164c-0.255,0.012-0.511,0.018-0.77,0.018
			c-4.436,0-8.029-1.598-8.029-3.574c0,0.824,0,1.375,0,2.732c0,1.975,3.594,3.574,8.029,3.574c0.637,0,1.255-0.037,1.85-0.1
			C12.935,43.499,12.924,42.933,13.202,42.47z"/>
		<path fill="#0773E8" d="M11.343,40.343c0.25,0,0.497-0.006,0.741-0.016v-0.41c0-0.686,0.47-1.275,1.125-1.439
			c-0.172-0.291-0.235-0.625-0.194-0.943c-0.539,0.051-1.099,0.078-1.672,0.078c-4.436,0-8.029-1.6-8.029-3.574
			c0,0.824,0,1.375,0,2.732C3.314,38.745,6.907,40.343,11.343,40.343z"/>
		<path fill="#0773E8" d="M11.343,36.63c0.792,0,1.557-0.053,2.281-0.148l0.6-0.6c0.288-0.287,0.668-0.434,1.051-0.434
			c0.259,0,0.516,0.066,0.749,0.201c0.169-0.646,0.756-1.107,1.435-1.107h1.114c0.021,0,0.04,0.006,0.06,0.006
			c0.471-0.455,0.739-0.957,0.739-1.49c0-0.727,0-1.482,0-2.733c0,1.976-3.595,3.575-8.029,3.575c-4.436,0-8.027-1.6-8.027-3.575
			c0,0.825,0,1.376,0,2.733C3.314,35.03,6.907,36.63,11.343,36.63z"/>
	</g>
	<g>
		<path fill="#0773E8" d="M22.479,41.03v-1.113L21.154,39.7c-0.078-0.314-0.201-0.609-0.363-0.881l0.771-1.1l-0.787-0.789
			l-1.087,0.783c-0.271-0.164-0.568-0.291-0.884-0.367l-0.232-1.32h-1.114l-0.213,1.316c-0.317,0.076-0.615,0.199-0.888,0.363
			l-1.084-0.775l-0.787,0.789l0.763,1.09c-0.165,0.273-0.291,0.57-0.37,0.889l-1.309,0.219v1.113l1.308,0.232
			c0.078,0.318,0.204,0.617,0.371,0.889l-0.773,1.082l0.787,0.787l1.091-0.764c0.274,0.164,0.571,0.287,0.888,0.365l0.217,1.314
			h1.114l0.233-1.318c0.315-0.08,0.612-0.205,0.883-0.369l1.1,0.771l0.787-0.787l-0.784-1.092c0.162-0.27,0.285-0.564,0.362-0.879
			L22.479,41.03z M18.025,42.036c-0.856,0-1.554-0.695-1.554-1.555c0-0.855,0.697-1.553,1.554-1.553
			c0.857,0,1.553,0.697,1.553,1.553C19.578,41.341,18.883,42.036,18.025,42.036z"/>
	</g>
</g>
<g>
	<g>
		<ellipse fill="#6B2F10" cx="33.867" cy="29.851" rx="8.028" ry="3.574"/>
		<path fill="#6B2F10" d="M35.727,42.976c-0.563-0.145-0.984-0.604-1.09-1.164c-0.255,0.012-0.511,0.018-0.77,0.018
			c-4.436,0-8.029-1.598-8.029-3.574c0,0.824,0,1.375,0,2.732c0,1.975,3.594,3.574,8.029,3.574c0.637,0,1.255-0.037,1.85-0.1
			C35.459,44.005,35.448,43.438,35.727,42.976z"/>
		<path fill="#6B2F10" d="M33.867,40.849c0.25,0,0.497-0.006,0.741-0.016v-0.41c0-0.686,0.47-1.275,1.125-1.439
			c-0.172-0.291-0.235-0.625-0.194-0.943c-0.539,0.051-1.099,0.078-1.672,0.078c-4.436,0-8.029-1.6-8.029-3.574
			c0,0.824,0,1.375,0,2.732C25.839,39.251,29.432,40.849,33.867,40.849z"/>
		<path fill="#6B2F10" d="M33.867,37.136c0.792,0,1.557-0.053,2.281-0.148l0.6-0.6c0.288-0.287,0.668-0.434,1.051-0.434
			c0.259,0,0.516,0.066,0.749,0.201c0.169-0.646,0.756-1.107,1.435-1.107h1.114c0.021,0,0.04,0.006,0.06,0.006
			c0.471-0.455,0.739-0.957,0.739-1.49c0-0.727,0-1.482,0-2.733c0,1.976-3.595,3.575-8.029,3.575c-4.436,0-8.027-1.6-8.027-3.575
			c0,0.825,0,1.376,0,2.733C25.839,35.536,29.432,37.136,33.867,37.136z"/>
	</g>
	<g>
		<path fill="#6B2F10" d="M45.004,41.536v-1.113l-1.325-0.217c-0.078-0.314-0.201-0.609-0.363-0.881l0.771-1.1L43.3,37.437
			l-1.087,0.783c-0.271-0.164-0.568-0.291-0.884-0.367l-0.232-1.32h-1.114l-0.213,1.316c-0.317,0.076-0.615,0.199-0.888,0.363
			l-1.084-0.775l-0.787,0.789l0.763,1.09c-0.165,0.273-0.291,0.57-0.37,0.889l-1.309,0.219v1.113l1.308,0.232
			c0.078,0.318,0.204,0.617,0.371,0.889L37,43.739l0.787,0.787l1.091-0.764c0.274,0.164,0.571,0.287,0.888,0.365l0.217,1.314h1.114
			l0.233-1.318c0.315-0.08,0.612-0.205,0.883-0.369l1.1,0.771l0.787-0.787l-0.784-1.092c0.162-0.27,0.285-0.564,0.362-0.879
			L45.004,41.536z M40.55,42.542c-0.856,0-1.554-0.695-1.554-1.555c0-0.855,0.697-1.553,1.554-1.553
			c0.857,0,1.553,0.697,1.553,1.553C42.103,41.847,41.407,42.542,40.55,42.542z"/>
	</g>
</g>
</svg>
