<?xml version="1.0" encoding="iso-8859-1"?>
<!-- Generator: Adobe Illustrator 16.0.0, SVG Export Plug-In . SVG Version: 6.00 Build 0)  -->
<!DOCTYPE svg PUBLIC "-//W3C//DTD SVG 1.1//EN" "http://www.w3.org/Graphics/SVG/1.1/DTD/svg11.dtd">
<svg version="1.1" id="Capa_1" xmlns="http://www.w3.org/2000/svg" xmlns:xlink="http://www.w3.org/1999/xlink" x="0px" y="0px"
	 width="324.734px" height="324.734px" viewBox="0 0 324.734 324.734" style="enable-background:new 0 0 324.734 324.734;"
	 xml:space="preserve">
<g>
	<path d="M13.725,224.644c2.457,21.24,13.331,51.256,51.216,73.633c18.629,11.009,37.053,16.595,54.743,16.595
		c25.954,0,46.066-11.79,60.763-20.399c14.667-8.599,23.297-13.229,32.986-11.454c14.872,2.792,28.189,10.178,39.574,21.953
		l19.124,19.764l39.529-38.248l-19.129-19.758c-19.203-19.848-43.056-32.908-68.968-37.759c-4.828-0.903-9.7-1.365-14.478-1.365
		c-23.292,0-41.663,10.762-56.452,19.417c-12.783,7.491-22.016,12.898-32.956,12.898c-7.874,0-16.378-2.851-26.758-8.987
		c-19.982-11.812-23.588-24.248-24.554-32.573c-4.722-40.403,44.215-97.407,63.602-116.104l10.977,10.977l33.406-33.408
		L164.96,68.435l29.949-8.977l-5.098-17.034l-33,9.895L181.6,8.807L166.16,0l-19.185,33.662V4.043h-17.777v28.63l-11.478-11.479
		L84.314,54.615l8.756,8.756C80.426,75.676,5.344,152.162,13.725,224.644z"/>
</g>
<g>
</g>
<g>
</g>
<g>
</g>
<g>
</g>
<g>
</g>
<g>
</g>
<g>
</g>
<g>
</g>
<g>
</g>
<g>
</g>
<g>
</g>
<g>
</g>
<g>
</g>
<g>
</g>
<g>
</g>
</svg>
