<?xml version="1.0" encoding="utf-8"?>
<!-- Generator: Adobe Illustrator 15.1.0, SVG Export Plug-In . SVG Version: 6.00 Build 0)  -->
<!DOCTYPE svg PUBLIC "-//W3C//DTD SVG 1.1//EN" "http://www.w3.org/Graphics/SVG/1.1/DTD/svg11.dtd">
<svg version="1.1" id="Layer_1" xmlns="http://www.w3.org/2000/svg" xmlns:xlink="http://www.w3.org/1999/xlink" x="0px" y="0px"
	 width="50px" height="50px" viewBox="0 0 50 50" enable-background="new 0 0 50 50" xml:space="preserve">
<path fill-rule="evenodd" clip-rule="evenodd" fill="#FFFFFF" d="M44.87,37.96c-2.592-0.063-4.598,0.194-6.285,0.908
	c-0.486,0.193-1.264,0.193-1.326,0.808c0.258,0.261,0.291,0.682,0.518,1.037c0.389,0.65,1.068,1.523,1.682,1.977
	c0.684,0.519,1.363,1.037,2.076,1.489c1.264,0.777,2.689,1.232,3.918,2.01c0.713,0.452,1.428,1.035,2.141,1.524
	c0.355,0.258,0.58,0.68,1.035,0.84c0-0.033,0-0.064,0-0.098c-0.229-0.291-0.291-0.713-0.52-1.037
	c-0.324-0.322-0.646-0.613-0.971-0.938c-0.939-1.262-2.104-2.364-3.369-3.271c-1.035-0.714-3.305-1.685-3.725-2.883
	c0,0-0.033-0.031-0.066-0.065c0.713-0.063,1.557-0.323,2.236-0.519c1.102-0.291,2.107-0.227,3.238-0.516
	c0.52-0.133,1.039-0.295,1.555-0.455c0-0.098,0-0.195,0-0.291c-0.582-0.583-1.006-1.36-1.619-1.911
	c-1.652-1.427-3.465-2.817-5.344-3.985c-1.004-0.647-2.301-1.069-3.367-1.618c-0.389-0.195-1.039-0.292-1.268-0.617
	c-0.58-0.713-0.904-1.652-1.326-2.494c-0.941-1.782-1.844-3.758-2.654-5.637c-0.584-1.262-0.941-2.526-1.654-3.692
	c-3.336-5.506-6.963-8.842-12.535-12.115c-1.199-0.68-2.623-0.972-4.146-1.329c-0.81-0.033-1.621-0.097-2.428-0.128
	C10.145,4.725,9.626,4.11,9.171,3.819C7.326,2.652,2.564,0.125,1.205,3.462C0.33,5.567,2.5,7.642,3.244,8.71
	c0.552,0.745,1.265,1.587,1.654,2.43c0.225,0.551,0.292,1.134,0.517,1.716c0.519,1.426,1.004,3.012,1.687,4.341
	c0.355,0.681,0.744,1.392,1.196,2.008c0.26,0.356,0.713,0.518,0.81,1.101c-0.452,0.648-0.486,1.62-0.744,2.429
	C7.195,26.396,7.65,30.931,9.302,33.62c0.519,0.811,1.751,2.593,3.402,1.912c1.457-0.586,1.132-2.432,1.554-4.052
	c0.096-0.389,0.033-0.647,0.227-0.905c0,0.032,0,0.065,0,0.065c0.452,0.905,0.908,1.781,1.326,2.688
	c1.005,1.589,2.753,3.24,4.213,4.341c0.777,0.583,1.393,1.588,2.364,1.945c0-0.033,0-0.067,0-0.1c-0.032,0-0.032,0-0.063,0
	c-0.194-0.289-0.488-0.422-0.747-0.646c-0.582-0.583-1.229-1.296-1.685-1.943c-1.36-1.815-2.559-3.824-3.627-5.896
	c-0.519-1.005-0.971-2.106-1.393-3.109c-0.194-0.388-0.194-0.973-0.52-1.167c-0.485,0.713-1.199,1.328-1.554,2.204
	c-0.616,1.392-0.679,3.11-0.907,4.889c-0.13,0.033-0.064,0-0.13,0.066c-1.036-0.258-1.393-1.328-1.782-2.235
	c-0.971-2.3-1.132-5.993-0.292-8.648c0.228-0.681,1.199-2.817,0.811-3.465c-0.194-0.616-0.841-0.973-1.199-1.459
	c-0.419-0.615-0.874-1.393-1.166-2.072c-0.777-1.814-1.166-3.823-2.009-5.637C5.738,9.552,5.059,8.678,4.509,7.899
	C3.893,7.026,3.21,6.41,2.727,5.373c-0.163-0.356-0.388-0.939-0.13-1.328C2.661,3.786,2.792,3.69,3.05,3.625
	C3.471,3.268,4.67,3.722,5.092,3.915c1.199,0.487,2.201,0.939,3.206,1.62c0.455,0.325,0.94,0.939,1.523,1.102
	c0.227,0,0.452,0,0.68,0c1.038,0.226,2.204,0.064,3.175,0.356c1.718,0.549,3.271,1.36,4.665,2.234
	c4.243,2.689,7.743,6.512,10.106,11.079c0.389,0.745,0.551,1.425,0.908,2.202c0.68,1.587,1.521,3.208,2.201,4.763
	c0.684,1.521,1.328,3.076,2.299,4.34c0.486,0.68,2.434,1.038,3.307,1.394c0.646,0.291,1.65,0.551,2.234,0.906
	c1.1,0.681,2.203,1.456,3.238,2.204C43.153,36.504,44.772,37.314,44.87,37.96L44.87,37.96z"/>
<path fill-rule="evenodd" clip-rule="evenodd" fill="#FFFFFF" d="M11.83,9.812c-0.552,0-0.941,0.065-1.329,0.161
	c0,0,0,0.034,0,0.065c0.033,0,0.033,0,0.067,0c0.258,0.518,0.71,0.874,1.035,1.328c0.258,0.519,0.485,1.037,0.744,1.556
	c0.033-0.033,0.066-0.065,0.066-0.065c0.452-0.323,0.68-0.843,0.68-1.62c-0.194-0.227-0.228-0.454-0.388-0.681
	C12.509,10.232,12.087,10.071,11.83,9.812L11.83,9.812z"/>
</svg>
